<svg width="96" height="96" viewBox="0 0 96 96" fill="none" xmlns="http://www.w3.org/2000/svg">
  <rect width="96" height="96" rx="28" fill="#FFE2D5"/>
  <path d="M26 52C26 64.1503 36.8497 74 49 74C61.1503 74 72 64.1503 72 52H26Z" fill="#FFF9F1" stroke="#5F3C28" stroke-width="6" stroke-linecap="round" stroke-linejoin="round"/>
  <path d="M32 44H66" stroke="#5F3C28" stroke-width="6" stroke-linecap="round"/>
  <path d="M56 26C52.6863 26 50 29.7909 50 34C50 38.2091 52.6863 42 56 42C59.3137 42 62 38.2091 62 34C62 29.7909 59.3137 26 56 26Z" fill="#FFE2D5" stroke="#5F3C28" stroke-width="6" stroke-linecap="round" stroke-linejoin="round"/>
  <path d="M56 42V54" stroke="#5F3C28" stroke-width="6" stroke-linecap="round"/>
  <path d="M40 28C37.7909 28 36 30.7909 36 34C36 37.2091 37.7909 40 40 40" stroke="#5F3C28" stroke-width="6" stroke-linecap="round"/>
</svg>
